<svg viewBox="0 0 408 376" xmlns="http://www.w3.org/2000/svg"><defs><clipPath id="a"><path d="M0 0h512v512H0z"/></clipPath></defs><g clip-path="url(#a)" transform="translate(-56.23 -53.4)"><g display="block"><path fill="#9E763D" d="M375.44 120.13c18.78-1.24 46.57-2.3 67.64 23.7 23.24 28.7 23.7 85.15-21.23 122.43-47.05 39.03-98.74-142.67-46.4-146.13z"/><path fill="#EDACAA" d="M385.81 145.93s27.65-8.08 43.67 19c13.06 22.08 5.04 59.2-15.5 75.94-24.43 19.92-45.01-96.8-28.17-94.94z"/><path stroke-linecap="round" stroke-linejoin="round" stroke="#BC9259" stroke-width="9.5" d="M449.71 179.61s-4.6-37.75-39.1-47.43" fill="none"/><path stroke-miterlimit="10" stroke="#5E421F" stroke-width="7.6" d="M375.44 120.13c18.78-1.24 46.57-2.3 67.64 23.7 23.24 28.7 23.7 85.15-21.23 122.43-47.05 39.03-98.74-142.67-46.4-146.13z" fill="none"/><path fill="#DB9897" d="M380.37 171.17c40.5-21.05 55.48 26.48 55.48 26.48l.02-.01c1.22-11.8-.57-23.55-5.99-32.7-16.02-27.1-43.66-19.01-43.66-19.01-5.27-.58-6.88 10.43-5.85 25.24z"/></g><g display="block"><path fill="#9E763D" d="M146 120.13c-18.78-1.24-46.58-2.3-67.64 23.7-23.25 28.7-23.7 85.15 21.23 122.43 47.05 39.03 98.73-142.67 46.4-146.13z"/><path stroke-miterlimit="10" stroke="#5E421F" stroke-width="7.6" d="M146 120.13c-18.78-1.24-46.58-2.3-67.64 23.7-23.25 28.7-23.7 85.15 21.23 122.43 47.05 39.03 98.73-142.67 46.4-146.13z" fill="none"/><path stroke-linecap="round" stroke-linejoin="round" stroke="#BC9259" stroke-width="9.5" d="M71.58 178.66s4.6-37.75 39.1-47.43" fill="none"/><path stroke-miterlimit="10" stroke="#5E421F" stroke-width="7.6" d="M146 120.13c-18.78-1.24-46.58-2.3-67.64 23.7-23.25 28.7-23.7 85.15 21.23 122.43 47.05 39.03 98.73-142.67 46.4-146.13z" fill="none"/><path fill="#EDACAA" d="M135.62 145.93s-27.64-8.08-43.67 19c-13.06 22.08-5.03 59.2 15.5 75.94 24.44 19.92 45.02-96.8 28.17-94.94z"/><g><path fill="#DB9897" d="M141.47 171.17c-40.5-21.05-55.48 26.48-55.48 26.48l-.02-.01c-1.22-11.8.57-23.55 5.99-32.7 16.02-27.1 43.66-19.01 43.66-19.01 5.27-.58 6.87 10.43 5.85 25.24z"/></g></g><g display="block"><path fill="#9E763D" d="M417.1 236.13c-20.9-41.8-9.83-43.71-22.38-85.4-14.44-48.01-60.3-91.47-133.68-91.47-74.18 0-119.24 43.46-133.69 91.47-12.54 41.69-1.48 43.6-22.38 85.4-22.95 45.9-32.64 171 156.07 171 188.7 0 179.01-125.1 156.07-171z"/><path fill="#BC9259" d="M404.3 235.9c-19.18-38.37-9.03-40.14-20.54-78.4-13.26-44.08-55.36-83.97-122.72-83.97-68.1 0-109.46 39.89-122.72 83.96-11.52 38.27-1.36 40.04-20.55 78.4-21.06 42.13-29.96 156.97 143.27 156.97 173.22 0 164.33-114.84 143.26-156.97z"/><path fill="#C79F6B" d="M348.02 114.82c0 22.36-38.68 40.49-86.4 40.49-47.7 0-86.39-18.13-86.39-40.49 0-22.35 38.68-40.48 86.4-40.48 47.7 0 86.39 18.13 86.39 40.48z"/><path stroke-linecap="round" stroke-linejoin="round" stroke="#FFF" stroke-width="5.699999999999999" d="M315.58 84.03c1.44.47 2.93.97 4.46 1.52M295.5 78.88s4.62.72 11.87 2.7" fill="none"/><path stroke-miterlimit="10" stroke="#5E421F" stroke-width="7.6" d="M417.1 236.13c-20.9-41.8-9.83-43.71-22.38-85.4-14.44-48.01-60.3-91.47-133.68-91.47-74.18 0-119.24 43.46-133.69 91.47-12.54 41.69-1.48 43.6-22.38 85.4-22.95 45.9-32.64 171 156.07 171 188.7 0 179.01-125.1 156.07-171z" fill="none"/><path fill="#F0D8B3" d="M340.15 183.85c-36.86-8.94-63.12 15.82-73.8 28.54a6.93 6.93 0 01-10.62 0c-10.68-12.72-36.94-37.48-73.8-28.54-48.88 11.85-56.28 54.3-51.35 76.52 4.62 20.75 21.72 40.63 48.9 50.4a6.92 6.92 0 014.44 8c-3.3 15.05-9.88 54.48 5.5 76.76a16.79 16.79 0 0011.53 7.07c7.02.96 19.15 3.59 29.35 10.67 16.13 11.19 30.74 10.5 30.74 10.5s14.6.69 30.73-10.5c10.2-7.08 22.34-9.7 29.35-10.67 4.66-.64 8.85-3.2 11.53-7.07 15.39-22.28 8.8-61.71 5.5-76.76a6.92 6.92 0 014.45-8c27.18-9.77 44.28-29.65 48.9-50.4 4.93-22.22-2.48-64.67-51.35-76.52z"/><path fill="#DBBF97" d="M383.39 221.83c2.42 5.75.1 12.43-5.35 15.45-37.72 20.86-86.83 12.02-108.2 7.66a44.8 44.8 0 00-19.18.23c-53.32 12.5-89.2-1.04-105.33-9.36a12.24 12.24 0 01-5.41-16.3c5.2-10.42 16.32-25.62 43.58-32.63 36.73-9.45 61.54 12.8 72.23 25.5a6.92 6.92 0 0010.61 0c10.69-12.7 36.2-33.94 73.06-25.01 25.45 6.17 37.63 19.33 43.99 34.46z"/><path stroke-miterlimit="10" stroke="#F0D8B3" stroke-width="7.6" d="M340.15 183.85c-36.86-8.94-63.12 15.82-73.8 28.54a6.93 6.93 0 01-10.62 0c-10.68-12.72-36.94-37.48-73.8-28.54-48.88 11.85-56.28 54.3-51.35 76.52 4.62 20.75 21.72 40.63 48.9 50.4a6.92 6.92 0 014.44 8c-3.3 15.05-9.88 54.48 5.5 76.76a16.79 16.79 0 0011.53 7.07c7.02.96 19.15 3.59 29.35 10.67 16.13 11.19 30.74 10.5 30.74 10.5s14.6.69 30.73-10.5c10.2-7.08 22.34-10.66 29.35-11.62 4.66-.64 8.85-2.25 11.53-6.12 15.39-22.28 8.8-61.71 5.5-76.76a6.92 6.92 0 014.45-8c27.18-9.77 44.28-29.65 48.9-50.4 4.93-22.22-2.48-64.67-51.35-76.52z" fill="none"/><path fill="#9E763D" d="M343.26 381.05a59.2 59.2 0 01-7.65 17.05c-2.67 3.87-9.83 3.86-14.49 4.5-7 .96-19.15 3.6-29.35 10.67-16.12 11.2-30.74 10.5-30.74 10.5s-14.6.7-30.73-10.5c-10.2-7.08-22.33-9.7-29.34-10.67-4.66-.64-10.56-.59-13.8-4-3.64-3.83-6.8-12.67-8.3-17.51 11.7 3.24 47.2 13.39 60.9 21.25 17.03 9.77 35.76 5.37 43.74 0 7.5-5.06 36.16-17.48 59.76-21.3z" opacity=".11"/><g><path stroke-linecap="round" stroke-linejoin="round" stroke="#B29572" stroke-width="7.6" d="M188.56 399.36c16.35 4.87 30.54 7.48 40.99 14.1 17.67 11.19 31.49 10.31 31.49 10.31s14.6.69 30.73-10.5c9.67-6.71 23.75-9.37 41.48-13.9" fill="none"/></g></g><g display="block"><path fill="#DBBF97" d="M290.09 337.57c-1.4-.62-5.78-.48-12.08-1.08-2.55-.24-9.65-.74-16.38-.74-6.74 0-14.06.4-16.61.63-6.31.53-10.8.57-12.2 1.19-1.9.83-.36 5.3 2.02 8.9 3.36 5.1 15.77 12.9 26.62 12.9 10.85 0 23.25-7.8 26.62-12.9 2.38-3.6 3.9-8.07 2-8.9z"/><path fill="#FFF4E9" d="M288.53 340.55c-1.57-.2-4.47 1.68-11.01 1.03-2.64-.27-8.9-.76-15.9-.76-6.98 0-13.5.4-16.15.65-6.55.58-9.56-1.36-11.08-.92-2.9.84-1.59 7.75.88 11.35 3.5 5.11 14.92 14 26.18 14s22.93-8.64 26.43-13.75c2.46-3.6 3.68-11.2.65-11.6z"/><path fill="#3F0A24" d="M288.53 340.55c-1.4-.62-4.85-.55-11.16-1.15-2.55-.24-9-.67-15.74-.67-6.73 0-13.44.35-16 .57-6.3.53-9.84.63-11.24 1.25-1.9.84-.37 4.4 2 8 3.37 5.12 14.22 12.9 25.07 12.9s21.7-7.78 25.06-12.9c2.38-3.6 3.91-7.16 2.01-8z"/><path fill="#B24660" d="M277.87 356.28c-4.68 2.9-10.55 5.18-16.41 5.18-6.03 0-12.06-2.59-16.8-5.6-.23 0 2.27 1.5 3.6 1.5 6.08 0 13.02.85 13.02.85s7.31-1.69 13.23-.62c1.27.23 4-1.3 3.36-1.3z"/><path fill="#040001" d="M288.38 345.35c.36-1.33.24-2.34-.64-2.74-1.36-.62-5.14-.73-11.26-1.3-2.48-.22-8.32-.52-14.85-.52-6.54 0-12.64.23-15.12.43-6.13.5-9.97.77-11.33 1.4-.88.39-1 1.4-.65 2.73-1.13-2.32-1.46-4.22-.14-4.8 1.4-.61 4.93-.72 11.24-1.25 2.56-.22 9.27-.57 16-.57s13.2.43 15.74.67c6.31.6 9.76.54 11.16 1.15 1.32.58.98 2.49-.15 4.8z"/></g><g display="block"><path fill="#DBBF97" d="M278.74 284.36c-3.45-.1-8.59 1.53-11.48 2.81-3 1.33-8.38 1.33-11.37 0-2.9-1.28-8.04-2.9-11.49-2.81-10.72.27-15.7 6.39-15.6 16.33.08 7.5 4.43 22.43 32.77 22.43 28.06 0 32.34-14.68 32.77-22.43.54-9.93-4.88-16.06-15.6-16.33z"/><path fill="#F0D8B4" d="M255.74 300.64c2.39 4.67.47 10.42-3.28 12.33-3.75 1.91-8.35-.17-11.02-4.68-4.01-6.78-2.32-12.19 1.43-14.1 3.75-1.92 9.14-.87 12.87 6.45z"/><path fill="#674430" d="M254.59 298.52c2.38 4.67 1.28 10-2.47 11.92-3.76 1.91-8.73-.32-11.11-4.99-2.38-4.67-1.28-10 2.47-11.92 3.76-1.91 8.73.32 11.11 4.99z"/><path fill="#361609" d="M254.59 298.52c.44.87.77 1.78.98 2.67-2.4-4.6-7.68-5.96-11.24-4.14-3.55 1.81-4.06 6.14-1.7 10.79a11.7 11.7 0 01-1.62-2.39c-2.39-4.67-1.28-10 2.47-11.92 3.75-1.91 8.72.32 11.1 4.99z"/><g><path fill="#F0D8B4" d="M267.5 300.64c-2.38 4.67-.46 10.42 3.29 12.33 3.75 1.91 8.35-.17 11.02-4.68 4.01-6.78 2.32-12.19-1.43-14.1-3.75-1.92-9.14-.87-12.87 6.45z"/><path fill="#674430" d="M268.66 298.52c-2.38 4.67-1.28 10 2.47 11.92 3.76 1.91 8.73-.32 11.11-4.99 2.38-4.67 1.28-10-2.47-11.92-3.76-1.91-8.73.32-11.11 4.99z"/><path fill="#361609" d="M268.66 298.52c-.44.87-.77 1.78-.97 2.67 2.39-4.6 7.67-5.96 11.23-4.14 3.56 1.81 4.06 6.14 1.7 10.79.62-.7 1.17-1.5 1.62-2.39 2.39-4.67 1.28-10-2.47-11.92-3.75-1.91-8.72.32-11.1 4.99z"/></g></g><g display="block"><path fill="#DBBF97" d="M302.15 265.33c0 18.54 11.28 33.57 24 33.57s24-15.03 24-33.57-11.28-33.57-24-33.57-24 15.03-24 33.57z"/><path fill="#111" d="M303.11 260.53c0 18.54 10.32 33.57 23.04 33.57 12.72 0 23.04-15.03 23.04-33.57s-10.32-33.57-23.04-33.57c-12.72 0-23.04 15.03-23.04 33.57z"/><path fill="#F5F5F5" d="M313.5 243.96c0 5.41 5.66 1.08 12.65 1.08s12.66 4.45 12.66-1.08c0-3.45-5.67-10.24-12.66-10.24s-12.66 6.79-12.66 10.24z"/><path fill="#484949" d="M309.92 267.9c0 6.72 6.74 19.7 16.23 19.7s16.23-12.98 16.23-19.7c0-10.8-6.74-.62-16.23-.62s-16.23-10.66-16.23.62z"/></g><g display="block"><path fill="#DBBF97" d="M219.4 265.33c0 18.54-11.27 33.57-24 33.57-12.72 0-24-15.03-24-33.57s11.28-33.57 24-33.57c12.73 0 24 15.03 24 33.57z"/><path fill="#111" d="M218.44 260.53c0 18.54-10.31 33.57-23.03 33.57-12.73 0-23.04-15.03-23.04-33.57s10.31-33.57 23.04-33.57c12.72 0 23.03 15.03 23.03 33.57z"/><path fill="#F5F5F5" d="M208.06 243.96c0 5.41-5.66 1.08-12.65 1.08-7 0-12.66 4.45-12.66-1.08 0-3.45 5.67-10.24 12.66-10.24s12.65 6.79 12.65 10.24z"/><path fill="#484949" d="M211.63 267.9c0 6.72-6.74 19.7-16.22 19.7-9.5 0-16.23-12.98-16.23-19.7 0-10.8 6.74-.62 16.23-.62 9.48 0 16.22-10.66 16.22.62z"/></g></g></svg>
