<svg viewBox="0 0 408 410" xmlns="http://www.w3.org/2000/svg"><defs><clipPath id="a"><path d="M0 0h512v512H0z"/></clipPath></defs><g clip-path="url(#a)" transform="translate(-56.4 -53.5)"><g display="block"><path fill="#9E763D" d="M375.44 120.13c18.78-1.24 46.57-2.3 67.64 23.7 23.24 28.7 23.7 85.15-21.23 122.43-47.05 39.03-98.74-142.67-46.4-146.13z"/><path fill="#EDACAA" d="M385.81 145.93s27.65-8.08 43.67 19c13.06 22.08 5.04 59.2-15.5 75.94-24.43 19.92-45.01-96.8-28.17-94.94z"/><path stroke-linecap="round" stroke-linejoin="round" stroke="#BC9259" stroke-width="9.5" d="M449.71 179.61s-4.6-37.75-39.1-47.43" fill="none"/><path stroke-miterlimit="10" stroke="#5E421F" stroke-width="7.6" d="M375.44 120.13c18.78-1.24 46.57-2.3 67.64 23.7 23.24 28.7 23.7 85.15-21.23 122.43-47.05 39.03-98.74-142.67-46.4-146.13z" fill="none"/><path fill="#DB9897" d="M380.37 171.17c40.5-21.05 55.48 26.48 55.48 26.48l.02-.01c1.22-11.8-.57-23.55-5.99-32.7-16.02-27.1-43.66-19.01-43.66-19.01-5.27-.58-6.88 10.43-5.85 25.24z"/></g><g display="block"><path fill="#9E763D" d="M146 120.13c-18.78-1.24-46.58-2.3-67.64 23.7-23.25 28.7-23.7 85.15 21.23 122.43 47.05 39.03 98.73-142.67 46.4-146.13z"/><path stroke-miterlimit="10" stroke="#5E421F" stroke-width="7.6" d="M146 120.13c-18.78-1.24-46.58-2.3-67.64 23.7-23.25 28.7-23.7 85.15 21.23 122.43 47.05 39.03 98.73-142.67 46.4-146.13z" fill="none"/><path stroke-linecap="round" stroke-linejoin="round" stroke="#BC9259" stroke-width="9.5" d="M71.58 178.66s4.6-37.75 39.1-47.43" fill="none"/><path stroke-miterlimit="10" stroke="#5E421F" stroke-width="7.6" d="M146 120.13c-18.78-1.24-46.58-2.3-67.64 23.7-23.25 28.7-23.7 85.15 21.23 122.43 47.05 39.03 98.73-142.67 46.4-146.13z" fill="none"/><path fill="#EDACAA" d="M135.62 145.93s-27.64-8.08-43.67 19c-13.06 22.08-5.03 59.2 15.5 75.94 24.44 19.92 45.02-96.8 28.17-94.94z"/><path fill="#DB9897" d="M141.47 171.17c-40.5-21.05-55.48 26.48-55.48 26.48l-.02-.01c-1.22-11.8.57-23.55 5.99-32.7 16.02-27.1 43.66-19.01 43.66-19.01 5.27-.58 6.87 10.43 5.85 25.24z"/></g><g display="block"><path fill="#9E763D" d="M417.1 236.13c-20.9-41.8-9.83-43.71-22.38-85.4-14.44-48.01-60.3-91.47-133.68-91.47-74.18 0-119.24 43.46-133.69 91.47-12.54 41.69-1.48 43.6-22.38 85.4-22.95 45.9-32.64 171 156.07 171 188.7 0 179.01-125.1 156.07-171z"/><path fill="#BC9259" d="M404.3 235.9c-19.18-38.37-9.03-40.14-20.54-78.4-13.26-44.08-55.36-83.97-122.72-83.97-68.1 0-109.46 39.89-122.72 83.96-11.52 38.27-1.36 40.04-20.55 78.4-21.06 42.13-29.96 156.97 143.27 156.97 173.22 0 164.33-114.84 143.26-156.97z"/><path fill="#C79F6B" d="M348.02 114.82c0 22.36-38.68 40.49-86.4 40.49-47.7 0-86.39-18.13-86.39-40.49 0-22.35 38.68-40.48 86.4-40.48 47.7 0 86.39 18.13 86.39 40.48z"/><path stroke-linecap="round" stroke-linejoin="round" stroke="#FFF" stroke-width="5.7" d="M315.58 84.03c1.44.47 2.93.97 4.46 1.52m-24.54-6.67s4.62.72 11.87 2.7" fill="none"/><path stroke-miterlimit="10" stroke="#5E421F" stroke-width="7.6" d="M417.1 236.13c-20.9-41.8-9.83-43.71-22.38-85.4-14.44-48.01-60.3-91.47-133.68-91.47-74.18 0-119.24 43.46-133.69 91.47-12.54 41.69-1.48 43.6-22.38 85.4-22.95 45.9-32.64 171 156.07 171 188.7 0 179.01-125.1 156.07-171z" fill="none"/><path fill="#F0D8B3" d="M340.15 183.85c-36.86-8.94-63.12 15.82-73.8 28.54a6.93 6.93 0 01-10.62 0c-10.68-12.72-36.94-37.48-73.8-28.54-48.88 11.85-56.28 54.3-51.35 76.52 4.62 20.75 21.72 40.63 48.9 50.4a6.92 6.92 0 014.44 8c-3.3 15.05-9.88 54.48 5.5 76.76a16.79 16.79 0 0011.53 7.07c7.02.96 19.15 3.59 29.35 10.67 16.13 11.19 30.74 10.5 30.74 10.5s14.6.69 30.73-10.5c10.2-7.08 22.34-9.7 29.35-10.67a16.8 16.8 0 0011.53-7.07c15.39-22.28 8.8-61.71 5.5-76.76a6.92 6.92 0 014.45-8c27.18-9.77 44.28-29.65 48.9-50.4 4.93-22.22-2.48-64.67-51.35-76.52z"/><path fill="#DBBF97" d="M383.39 221.83c2.42 5.75.1 12.43-5.35 15.45-37.72 20.86-86.83 12.02-108.2 7.66a44.8 44.8 0 00-19.18.23c-53.32 12.5-89.2-1.04-105.33-9.36a12.24 12.24 0 01-5.41-16.3c5.2-10.42 16.32-25.62 43.58-32.63 36.73-9.45 61.54 12.8 72.23 25.5a6.92 6.92 0 0010.61 0c10.69-12.7 36.2-33.94 73.06-25.01 25.45 6.17 37.63 19.33 43.99 34.46z"/><path stroke-miterlimit="10" stroke="#F0D8B3" stroke-width="7.6" d="M340.15 183.85c-36.86-8.94-63.12 15.82-73.8 28.54a6.93 6.93 0 01-10.62 0c-10.68-12.72-36.94-37.48-73.8-28.54-48.88 11.85-56.28 54.3-51.35 76.52 4.62 20.75 21.72 40.63 48.9 50.4a6.92 6.92 0 014.44 8c-3.3 15.05-9.88 54.48 5.5 76.76a16.79 16.79 0 0011.53 7.07c7.02.96 19.15 3.59 29.35 10.67 16.13 11.19 30.74 10.5 30.74 10.5s14.6.69 30.73-10.5c10.2-7.08 22.34-10.66 29.35-11.62 4.66-.64 8.85-2.25 11.53-6.12 15.39-22.28 8.8-61.71 5.5-76.76a6.92 6.92 0 014.45-8c27.18-9.77 44.28-29.65 48.9-50.4 4.93-22.22-2.48-64.67-51.35-76.52z" fill="none"/><path fill="#9E763D" d="M343.26 381.05a59.2 59.2 0 01-7.65 17.05c-2.67 3.87-9.83 3.86-14.49 4.5-7 .96-19.15 3.6-29.35 10.67-16.12 11.2-30.74 10.5-30.74 10.5s-14.6.7-30.73-10.5c-10.2-7.08-22.33-9.7-29.34-10.67-4.66-.64-10.56-.59-13.8-4-3.64-3.83-6.8-12.67-8.3-17.51 11.7 3.24 47.2 13.39 60.9 21.25 17.03 9.77 35.76 5.37 43.74 0 7.5-5.06 36.16-17.48 59.76-21.3z" opacity=".11"/><path stroke-linecap="round" stroke-linejoin="round" stroke="#B29572" stroke-width="7.6" d="M188.56 399.36c16.35 4.87 30.54 7.48 40.99 14.1 17.67 11.19 31.49 10.31 31.49 10.31s14.6.69 30.73-10.5c9.67-6.71 23.75-9.37 41.48-13.9" fill="none"/></g><g display="block"><path fill="#DBBF97" d="M277.8 342.33c-.51-1.54-1.38-3.37-4.28-6.74-1.16-1.35-4.25-5.96-10.2-5.96-5.93 0-10.45 4.94-12.37 7.57-2.27 3.11-2.45 7.47-2.63 8.75-.24 1.65-.48 1.77.82 5.37 1.85 5.11 8.3 10.3 14.27 10.3 5.97 0 12.8-5.65 14.65-10.76 1.3-3.61.35-6.68-.26-8.53z"/><path fill="#FFF4E9" d="M278.2 343.86c-.7-1.79-1.73-1.26-5.14-4.4-1.37-1.27-3.56-4.76-9.73-4.76s-8.53 3.1-9.89 4.43c-3.36 3.28-4.11 4.71-4.7 6.47-1.13 3.36-.99 5.48.37 9.09 1.92 5.1 8.1 13.46 14.3 13.46 6.18 0 12.6-8.64 14.53-13.75 1.35-3.6 1.61-7.08.25-10.54z"/><path fill="#3F0A24" d="M278.2 343.86c-.52-2.33-1.83-3.74-5.12-6.75-1.33-1.21-3.8-4.5-9.75-4.5-5.94 0-9.02 3.21-10.34 4.48-3.24 3.14-3.77 6.66-4.25 8.51-.66 2.52-.05 4.21 1.26 7.82 1.85 5.1 7.44 10.29 13.41 10.29s11.94-5.65 13.8-10.76c1.3-3.6 1.68-5.93.98-9.09z"/><path fill="#B24660" d="M272.94 359.16c-2.57 2.9-6.3 4.55-9.53 4.55-3.32 0-6.32-1.08-8.93-4.1h1.67c3.34 0 7.23.37 7.23.37s5.23-1.3 8.48-.23c.7.23 1.43-.59 1.08-.59z"/><path fill="#040001" d="M278.23 349.74c.2-1.33-.26-2.09-.58-3.56-.5-2.3-1.95-4.34-5.15-7.23-1.3-1.17-3.4-4.28-9.17-4.28s-8.11 2.57-9.4 3.8c-3.15 3.03-4.03 6.65-4.62 8.62a6.63 6.63 0 00-.34 3.12c-.62-2.32-.55-2.7-.23-4.6a14.36 14.36 0 014.26-8.52c1.3-1.27 4.4-4.48 10.33-4.48 5.94 0 8.42 3.29 9.75 4.5 3.3 3 4.6 4.43 5.11 6.75.49 2.2.66 3.57.04 5.88z"/></g><g display="block"><path fill="#DBBF97" d="M278.74 284.36c-3.45-.1-8.59 1.53-11.48 2.81-3 1.33-8.38 1.33-11.37 0-2.9-1.28-8.04-2.9-11.49-2.81-10.72.27-15.7 6.39-15.6 16.33.08 7.5 4.43 22.43 32.77 22.43 28.06 0 32.34-14.68 32.77-22.43.54-9.93-4.88-16.06-15.6-16.33z"/><path fill="#F0D8B4" d="M255.74 300.64c2.39 4.67.47 10.42-3.28 12.33-3.75 1.91-8.35-.17-11.02-4.68-4.01-6.78-2.32-12.19 1.43-14.1 3.75-1.92 9.14-.87 12.87 6.45z"/><path fill="#674430" d="M254.59 298.52c2.38 4.67 1.28 10-2.47 11.92-3.76 1.91-8.73-.32-11.11-4.99-2.38-4.67-1.28-10 2.47-11.92 3.76-1.91 8.73.32 11.11 4.99z"/><path fill="#361609" d="M254.59 298.52c.44.87.77 1.78.98 2.67-2.4-4.6-7.68-5.96-11.24-4.14-3.55 1.81-4.06 6.14-1.7 10.79a11.7 11.7 0 01-1.62-2.39c-2.39-4.67-1.28-10 2.47-11.92 3.75-1.91 8.72.32 11.1 4.99z"/><path fill="#F0D8B4" d="M267.5 300.64c-2.38 4.67-.46 10.42 3.29 12.33 3.75 1.91 8.35-.17 11.02-4.68 4.01-6.78 2.32-12.19-1.43-14.1-3.75-1.92-9.14-.87-12.87 6.45z"/><path fill="#674430" d="M268.66 298.52c-2.38 4.67-1.28 10 2.47 11.92 3.76 1.91 8.73-.32 11.11-4.99 2.38-4.67 1.28-10-2.47-11.92-3.76-1.91-8.73.32-11.11 4.99z"/><path fill="#361609" d="M268.66 298.52c-.44.87-.77 1.78-.97 2.67 2.39-4.6 7.67-5.96 11.23-4.14 3.56 1.81 4.06 6.14 1.7 10.79.62-.7 1.17-1.5 1.62-2.39 2.39-4.67 1.28-10-2.47-11.92-3.75-1.91-8.72.32-11.1 4.99z"/></g><g display="block"><path fill="#DBBF97" d="M302.15 265.33c0 18.54 11.28 33.57 24 33.57s24-15.03 24-33.57-11.28-33.57-24-33.57-24 15.03-24 33.57z"/><path fill="#111" d="M303.11 260.53c0 18.54 10.32 33.57 23.04 33.57 12.72 0 23.04-15.03 23.04-33.57s-10.32-33.57-23.04-33.57c-12.72 0-23.04 15.03-23.04 33.57z"/><path fill="#F5F5F5" d="M313.5 243.96c0 5.41 5.66 1.08 12.65 1.08s12.66 4.45 12.66-1.08c0-3.45-5.67-10.24-12.66-10.24s-12.66 6.79-12.66 10.24z"/><path fill="#484949" d="M309.92 267.9c0 6.72 6.74 19.7 16.23 19.7s16.23-12.98 16.23-19.7c0-10.8-6.74-.62-16.23-.62s-16.23-10.66-16.23.62z"/></g><path fill="#9E763D" d="M252.65 207.65c-3.37 11.75-11.28 27.6-14.88 45.4-6.53 32.21-16.17 63.87-40.25 79.6-7.34 4.66-15.15 12.8-18.03 23.6-2.08 7.82 4.13 32.41 34.44 50.98-32.94-6.74-81.46-27.36-95.98-39.64 5.1-21.33 8.28-29.04 9.1-35.45 1.46-11.31-1.25-21.18-3.6-27.18a26.9 26.9 0 01-2.84-6.11s-9.74-19.11-3.73-47.5c5.86-27.72 23.07-59.13 43-56.29 0 0 19.55-35.07 37.81-42.43 13.72-5.53 21.27 3.63 21.44 10.93 0 0-1.06-7.56 11-6.32 12.07 1.25 8.6 1.88 6 13.85 0 0 29.32-8.16 16.52 36.56zm.76 110c3.36 11.75 11.7 26.73 18.88 43.4 12.71 29.45 8.17 15.37 32.25 31.1 7.34 4.66 16.15-9.2 19.03 1.6 2.08 7.82 12.87-4.09-17.45 14.48 32.95-6.74 81.47-27.36 95.99-39.64-5.1-21.33-29.28 10.96-30.1 4.55-1.46-11.31 1.25-21.18 3.6-27.18 1.22-2 2.2-4.04 2.84-6.11 0 0 16.74 49.89 10.73 21.5-5.86-27.72-19.07-133.63-39-130.79 0 0-18.68-10.06-15.81 73.57.5 14.79-11.27-.87-11.44 6.43 0 0-34.94-44.56-47-43.32-12.07 1.25-8.6 1.88-6.01 13.85 0 0-29.31-8.16-16.51 36.56z" opacity=".2" display="block"/><g display="block"><path fill="#E9C9A5" d="M392.97 380.02s10.53-17.45 6.79-44.76c-3.66-26.66-4.14-45.63-22.05-52.37 0 0 7.44-48.98-23.46-49.64-23.25-.5-3.5 57.5-10.63 68.47 0 0-48.73-49.47-71.68-51.35-11.48-.95-16.57 8.5-12.15 19.26 0 0-11.9-1.09-13.45 12.58-1.47 12.93 25.65 26.73 29.25 46.39 4.33 23.66 6.8 53.11 28.68 73.14 21.89 20.03 79 2.63 88.7-21.72z"/><path fill="#FCE3C7" d="M252.12 298.2a9.67 9.67 0 00-.09-4.87c-2.92-9.44 3.25-17.68 20.04-1.16 17.87 17.6 25.01 25.34 29.77 26.92 6.26 2.09 4.45-6.01 4.45-6.01-4.84-10.33-21.73-22.07-30.97-31.09-9.25-9.02-12.76-14.74-12.76-14.74.54-17.78 15.94-10.15 30.84 1 13.46 10.06 33.56 28.3 41.38 33.67 8.66 5.96 7.7 1.46 9.4 0a6.28 6.28 0 002.06-3.1c-2.5 3.88-3.12 4.38-3.12 4.38 9.88-16.45-11.15-80.7 11.63-58.08 23.05 22.88 8.42 70.96 14.36 74.03 5.22 2.7 7.3-3.12 7.3-3.12l2.36-14.68c3.46-15.09 17.76 11.69 18.24 12.16-6.42-11.25-9.9-27.06-19.02-30.5 0 0 7.65-49.27-23.25-49.93-23.24-.5-3.74 56.42-10.9 68.85 0 0-48.56-50.07-71.6-51.66-11.5-.8-16.57 8.52-12.15 19.3 0 0-11.89-1.1-13.45 12.56-.5 4.3 1.84 9.87 5.48 16.08z"/><path fill="#DCB07F" d="M269.46 324.4c3.17 4.77 5.29-.42 6.13 4.2 4.33 23.67 6.8 53.1 28.68 73.14 21.88 20.03 79 2.63 88.7-21.72 0 0 10.53-17.45 6.79-44.76-.59-4.28-1.44-8.67-2.56-13.02 0 0-.98 56.18-41.51 59.29-31.83 2.44-46.27 1.37-86.23-57.12z"/><path stroke-linecap="round" stroke-linejoin="round" stroke="#946037" stroke-width="7.6" d="M392.97 380.02s10.53-17.45 6.79-44.76c-3.66-26.66-4.14-45.63-22.05-52.37 0 0-1.27-50.14-23.46-49.64-23.25.52-5 56.25-10.63 68.47 0 0-47.63-50.1-71.68-51.35-11.5-.6-16.57 8.5-12.15 19.26 0 0-11.9-1.09-13.45 12.58-1.47 12.93 25.65 26.73 29.25 46.39 4.33 23.66 6.8 53.11 28.68 73.14 21.89 20.03 79 2.63 88.7-21.72zm-49.35-78.3s.78-1.46-.13.69m34.22-19.52s2.54 20.36-1.36 34.27M259.8 269.63s29.23 14.03 46.86 44.14" fill="none"/><path fill="#9E763D" d="M400.12 454.11s-14.26-25.26-15.27-43.01c-1-17.76 2.97-28.09 2.97-28.09l-8.9 9.33-3.69-11.82c-.53-1.72-2.79-2.32-4.03-.95l-7.66 8.37-10.45-13.24c-1.2-1.48-3.62-1.07-4.16.77l-4.99 16.39-16.56-6.6a2.4 2.4 0 00-3.27 2.2v18.7l-18.52-7.6s20.78 14.56 24.1 31.83c3.33 17.28 4.65 24.67 4.65 24.67s12.28 7.34 29.25 7.3c29.58-.06 36.53-8.25 36.53-8.25z"/><path fill="#BC9259" d="M349.58 460.76s12.23 3.38 27.91 1.07c18.54-2.73 22.63-7.72 22.63-7.72s-2.5-3.98-12.24-25.14l-.4 3.3c-2.61-13.9-18.67-28.88-29.83-16.24-7.84 8.91-5.03 17.72-5.14 28.38-.09 8.35-2.93 16.35-2.93 16.35z"/><path stroke-linecap="round" stroke-linejoin="round" stroke="#5E421F" stroke-width="7.6" d="M399.26 452.21s-13.4-23.36-14.4-41.11c-.6-10.8 2.6-19.95 5.22-25.47m-84.02 17.57s20.84 11.34 23.63 27.2c3.03 17.33 4.65 21.81 4.65 21.81" fill="none"/></g><g display="block"><path fill="#E9C9A5" d="M113.03 290.02s-10.53-17.45-6.79-44.76c3.66-26.66 17.81-57.6 36.9-56.28 0 0 16.13-34.55 32.91-42.78 12.63-6.2 20.4 1.97 21.06 8.88 0 0 7.57-10.9 19.1-10.55 11.51.35 16.12 11.87 14.47 23.39 0 0 11.26-3.98 16.13 8.88 4.6 12.18-12.8 42.14-16.4 61.8-4.33 23.66-6.8 53.11-28.68 73.14-21.89 20.03-79 2.63-88.7-21.72z"/><path fill="#FCE3C7" d="M245.14 193.73a9.73 9.73 0 01-1.11-4.75c.5-9.87-7.5-16.34-19.7 3.8-13.01 21.46-15.18 32.6-19.55 35.07-5.75 3.24-5.52-5.05-5.52-5.05 2.78-11.07 12.67-28.07 19.4-39.09 6.75-11 8.76-17.42 8.76-17.42-4.9-17.1-16.45-11.2-28.16 3.26-10.57 13.06-18.74 33.22-23.04 41.68-4.29 8.48-9.72 3.76-10.02 2.78-.31-.98.62-3.65.62-3.65 4.04-14.38 22.65-47.5 22.65-47.5-1.3-10.74-10.28-10.43-25.27 9.61-17.4 23.26-21.37 53.61-27.3 56.68-5.23 2.7-7.3-3.12-7.3-3.12l4.88-16.18c-3.46-15.09-15.76-3.06-16.24-2.59 6.42-11.25 14.86-18.95 24.59-18.28 0 0 16.13-34.56 32.9-42.78 12.63-6.19 20.42 1.97 21.08 8.89 0 0 7.56-10.92 19.08-10.57 11.52.37 16.13 11.88 14.48 23.4 0 0 11.26-3.98 16.13 8.89 1.53 4.03.64 10-1.36 16.92z"/><path fill="#DCB07F" d="M234.77 223.4c-1.9 5.39-3.52 10.58-4.36 15.2-4.33 23.67-6.8 53.1-28.68 73.14-21.88 20.03-79 2.63-88.7-21.72 0 0-10.53-17.45-6.79-44.76.59-4.28 1.44-8.67 2.56-13.02 0 0 .98 56.18 41.51 59.29 31.83 2.44 60.1-1.63 84.46-68.14z"/><path stroke-linecap="round" stroke-linejoin="round" stroke="#946037" stroke-width="7.6" d="M113.03 290.02s-10.53-17.45-6.79-44.76c3.66-26.66 17.81-57.6 36.9-56.28 0 0 16.13-34.55 32.91-42.78 12.63-6.2 20.4 1.97 21.06 8.88 0 0 7.57-10.9 19.1-10.55 11.51.35 16.12 11.87 14.47 23.39 0 0 11.26-3.98 16.13 8.88 4.6 12.18-12.8 42.14-16.4 61.8-4.33 23.66-6.8 53.11-28.68 73.14-21.89 20.03-79 2.63-88.7-21.72zm84.08-134.94s-22.05 28.64-30.6 57.27m-23.37-23.37s-9.87 21.72-13.5 38.18m101.04-59.24s-20.07 22.7-31.65 55.62" fill="none"/><path fill="#9E763D" d="M89.14 453.86s31-115 32-132.76c1.02-17.76-2.96-28.09-2.96-28.09l8.9 9.33 3.69-11.82c.53-1.72 2.79-2.32 4.03-.95l7.66 8.37 10.45-13.24c1.2-1.48 3.62-1.07 4.16.77l4.99 16.39 16.56-6.6a2.4 2.4 0 013.27 2.2v18.7l18.52-7.6s-20.78 14.56-24.1 31.83c-3.33 17.28-14.67 114.42-14.67 114.42s-13.54 7.36-32.24 7.3c-32.6-.06-40.26-8.25-40.26-8.25z"/><path fill="#BC9259" d="M144.84 460.51s-13.48 3.38-30.76 1.07c-20.42-2.73-24.94-7.72-24.94-7.72s21.08-77.66 28.98-114.9l1.9 3.8c2.61-13.88 19.41-28.37 30.58-15.72 7.83 8.9 4.8 32.12.89 64.12-3.8 30.7-6.65 69.35-6.65 69.35z"/><path stroke-linecap="round" stroke-linejoin="round" stroke="#5E421F" stroke-width="7.6" d="M90.1 451.96s30.04-113.1 31.05-130.86c.6-10.8-2.62-19.95-5.23-25.47m84.02 17.57s-20.84 11.34-23.63 27.2c-3.03 17.33-14.67 111.56-14.67 111.56" fill="none"/></g></g></svg>
