<svg viewBox="0 0 401 374" style="width:100%;height:100%" xmlns="http://www.w3.org/2000/svg"><defs><clipPath id="a"><path d="M0 0h512v512H0z"/></clipPath></defs><g clip-path="url(#a)" transform="translate(-77.55 -53.89)"><g display="block"><path fill="#9E763D" d="M355.87 102.6c18.42-3.84 69.27-10.54 93.74 12.28 27.02 25.18 41.54 84.21-14.12 134.7-45.28 41.07-130.96-136.28-79.62-146.98z"/><path fill="#EDACAA" d="M380.01 126.27s39.44-13.2 59.08 11.4c16 20.04 14.97 59.7-4.8 77.36-55.14 49.27-71.21-88.25-54.28-88.76z"/><path stroke-linecap="round" stroke-linejoin="round" stroke="#BC9259" stroke-width="9.5" d="M461.16 149.4s-9.8-36.76-45.31-41.54" fill="none"/><path stroke-miterlimit="10" stroke="#5E421F" stroke-width="7.6" d="M355.87 102.6c18.42-3.84 69.27-10.54 93.74 12.28 27.02 25.18 40.34 86.4-14.12 134.7-45.74 40.56-130.96-136.28-79.62-146.98z" fill="none"/><path fill="#DB9897" d="M378.14 152.03c37.18-26.48 71.8 17.15 71.8 17.15l.03-.01c-.44-11.86-3.85-23.24-10.49-31.55-19.63-24.6-59.07-11.4-59.07-11.4-5.3.16-5.35 11.28-2.27 25.8z"/></g><g display="block"><path fill="#9E763D" d="M166.35 103.14c-18.77-1.24-46.57-2.3-67.63 23.7-23.25 28.7-23.7 85.15 21.23 122.42 47.05 39.04 98.73-142.67 46.4-146.12z"/><path stroke-miterlimit="10" stroke="#5E421F" stroke-width="7.6" d="M166.35 103.14c-18.77-1.24-46.57-2.3-67.63 23.7-23.25 28.7-23.7 85.15 21.23 122.42 47.05 39.04 98.73-142.67 46.4-146.12z" fill="none"/><path stroke-linecap="round" stroke-linejoin="round" stroke="#BC9259" stroke-width="9.5" d="M91.94 161.67s4.6-37.76 39.1-47.43" fill="none"/><path stroke-miterlimit="10" stroke="#5E421F" stroke-width="7.6" d="M166.35 103.14c-18.77-1.24-46.57-2.3-67.63 23.7-23.25 28.7-23.7 85.15 21.23 122.42 47.05 39.04 98.73-142.67 46.4-146.12z" fill="none"/><path fill="#EDACAA" d="M155.99 128.94s-27.65-8.08-43.68 19c-13.06 22.08-5.03 59.2 15.5 75.94 24.44 19.92 45.02-96.8 28.18-94.94z"/><g><path fill="#DB9897" d="M161.83 154.18c-40.5-21.05-55.48 26.48-55.48 26.48l-.02-.01c-1.22-11.81.57-23.55 5.99-32.7 16.02-27.1 43.66-19.01 43.66-19.01 5.27-.58 6.88 10.43 5.85 25.24z"/></g></g><g display="block"><path fill="#9E763D" d="M417.1 236.13c-20.9-41.8-9.83-43.71-22.38-85.4-14.44-48.01-60.3-91.47-133.68-91.47-74.18 0-119.24 43.46-133.69 91.47-12.54 41.69 2.12 45.2-13.42 88.5-17.07 47.53-41.6 167.9 147.1 167.9 188.71 0 179.02-125.1 156.08-171z"/><path fill="#BC9259" d="M390.81 239.89c-19.18-38.37 4.46-44.13-7.05-82.4-13.26-44.07-55.36-83.96-122.72-83.96-68.1 0-109.46 39.89-122.72 83.96-11.52 38.27-.76 42.28-14.14 82.03-14.69 43.64-27 153.34 136.97 153.34S411.88 282.01 390.8 239.9z"/><path fill="#C79F6B" d="M339.02 132.82c-2.91 22.17-32.54 56.09-95.89 53.97-69.11-2.3-81.48-28.66-82.89-50.98-2.23-35.31 53.67-61.47 101.38-61.47 47.72 0 81.38 28.16 77.4 58.48z"/><path stroke-linecap="round" stroke-linejoin="round" stroke="#FFF" stroke-width="5.699999999999999" d="M313.66 88.75c1.28.8 2.6 1.65 3.95 2.55M295.4 78.93s4.31 1.81 10.88 5.47" fill="none"/><path stroke-miterlimit="10" stroke="#5E421F" stroke-width="7.6" d="M417.1 236.13c-20.9-41.8-9.83-43.71-22.38-85.4-14.44-48.01-60.3-91.47-133.68-91.47-74.18 0-119.24 43.46-133.69 91.47-12.54 41.69 2.12 45.2-13.42 88.5-17.07 47.53-31.41 167.9 147.22 167.9 178.62 0 178.9-125.1 155.96-171z" fill="none"/><path fill="#F0D8B3" d="M320.88 235.69c-40.46-7.72-77.27 19.65-87.95 30.63a7.65 7.65 0 01-10.62 0c-10.68-10.98-30.97-37.72-63.24-32.35-27.07 4.5-33.56 32.09-31.99 54.55 1.47 20.98 6.26 41.41 33.44 51.19a6.92 6.92 0 014.45 7.99c-3.3 15.05-5.14 20.56 10.25 42.84 2.67 3.87-2.24 4.56 2.42 5.2 7.01.96 17.5 7.1 28.22 14.6 16.95 11.85 32.94 11.78 32.94 11.78s19.81.72 33.2-6.97c8.47-4.87 24.65-7.84 31.66-8.8 4.66-.65-2.27-1.5-.44-5.83 8.37-19.79-5.86-26.62 4.01-51.58 1.28-3.24 1.05-7.23 4.45-7.99 29.4-6.53 53.87-12.47 60.86-42.61 7.5-32.27 2-52.42-51.66-62.65z"/><path fill="#DBBF97" d="M358.76 261.08c2.93 4.87.12 10.74-5.95 13.35-41.97 18.02-93.08 15.59-114.45 11.82-6.34-1.12-12.73.58-19.18.2-23.93-1.38-39.24-23.8-52.9-24.78-16.03-1.15-36.18-10.37-28.55-16.71 9.06-7.54 14.17-9.92 30.5-8.74 19.76 1.44 43.34 19.17 54.02 30.17a7.65 7.65 0 0010.6 0c10.7-10.98 46.7-35.31 87.17-27.59 27.94 5.34 33.99 14.37 38.74 22.28z"/><path stroke-miterlimit="10" stroke="#F0D8B3" stroke-width="7.6" d="M320.88 235.69c-40.46-7.72-77.27 19.65-87.95 30.63a7.65 7.65 0 01-10.62 0c-10.68-10.98-35.5-37.14-63.24-32.35-26.07 4.5-33.56 32.09-31.99 54.55 1.47 20.98 6.26 41.41 33.44 51.19a6.92 6.92 0 014.45 7.99c-3.3 15.05-.7 26.05 10.25 42.84 2.56 3.94-2.24 4.56 2.42 5.2 7.01.96 17.5 7.1 28.22 14.6 16.95 11.85 32.94 11.78 32.94 11.78s19.4.08 33.2-6.97c6.2-3.17 24.65-8.8 31.66-9.76 4.66-.64-2.45-.62-.44-4.87 9.62-20.29-5.11-26.62 4.01-51.58 1.2-3.27 1.05-7.22 4.45-7.99 28.9-6.53 53.87-12.47 60.86-42.61 7.5-32.27 2-52.42-51.66-62.65z" fill="none"/><path fill="#9E763D" d="M314.58 388.78c-1.58 6.27-5.73 10.45-8.4 14.31-2.67 3.87 2.14 2.61-2.51 3.25-7.02.96-24.75 5.2-31.67 8.8-13.75 7.15-33.2 6.97-33.2 6.97s-16 .09-32.94-11.78c-10.71-7.5-24.92-12.44-29.34-14.09-4.4-1.64-.33.78-3.57-2.62-3.65-3.84-9-14.8-10.49-19.64 11.33 4.97 31.57 20.12 48.53 27.98 21.08 9.78 41.61 6.13 49.6.75 7.49-5.05 30.39-10.12 54-13.93z" opacity=".11"/><g><path stroke-linecap="round" stroke-linejoin="round" stroke="#B29572" stroke-width="7.6" d="M171.1 393.25c11.33 5.01 22.91 10.2 33.92 17.24 18.64 11.92 33.78 11.63 33.78 11.63s19.24-.19 33.2-6.97c7.01-3.41 16.2-7.9 33.57-10.55" fill="none"/></g></g><g display="block"><path fill="#DBBF97" d="M255.42 378.12c-1.36-.7-4.68-.75-10.77.99-2.46.7-5.98 2.16-12.7 1.8-6.73-.37-7.63-.48-10.08-1.2-6.08-1.78-11.45-2.6-12.88-2.07-1.94.73-.54 2.65 1.15 4.2 2.4 2.17 12.23 5.28 21.05 5.51 8.82.23 19.08-2.74 21.92-4.82 2-1.47 4.17-3.47 2.31-4.4z"/><path fill="#FFF4E9" d="M253.6 380.2c-1.27-.03-3 .37-8.1 1.37-2.06.4-8.02 1.82-13.7 1.67-5.69-.14-11.5-1.26-13.55-1.66-5.1-.97-6.84-2.13-8.1-2.06-2.4.15-2.92.59-.65 4.32 3.21 5.3 15.38 7.53 22.26 7.77 7 .25 18.63-2.25 21.51-5.8 2.75-3.39 2.78-5.53.33-5.6z"/><path fill="#3F0A24" d="M253.6 380.2c-1.13-.2-4-.32-8.9.65-1.99.4-7.33 1.72-12.81 1.58-5.48-.14-10.85-1.19-12.84-1.57-4.9-.94-7.72-1.49-8.9-1.34-1.59.2-.57 1.68 1.12 3.22 2.4 2.18 11 5.2 19.83 5.42 8.82.23 17.85-2.69 20.7-4.77 2-1.47 3.33-2.9 1.8-3.18z"/><path fill="#B24660" d="M245.56 385.9c-3.87 1.26-9.7 2.39-14.46 2.26-4.9-.12-9.21-.7-12.86-2.15-.19-.02 2.62.63 3.65.91 5.5 1.47 7.81 1.31 11.27 1.2 4.93-.17 13.35-2.57 16.75-3.8-.48.22-2.97 1.47-4.35 1.58z"/><path fill="#040001" d="M253.38 382.09c.32-.54.24-.93-.46-1.06-1.1-.2-3.52-.3-8.29.65-1.92.38-7.52 1.69-12.83 1.55a81.25 81.25 0 01-12.7-1.55c-4.75-.92-7.3-1.46-8.44-1.31-.73.1-.9.48-.7 1.01-.76-.96-.92-1.71.2-1.85 1.17-.15 3.98.39 8.9 1.33 1.98.38 7.36 1.43 12.83 1.57 5.48.14 10.82-1.19 12.8-1.58 4.92-.97 7.78-.84 8.9-.64 1.08.19.76.94-.21 1.88z"/></g><g display="block"><path fill="#DBBF97" d="M243.68 334.51c-3.55-.39-8.98.55-12.07 1.4-3.19.87-12.03.44-14.4-.92-2.29-1.32-6.4-3.1-9.25-3.26-8.86-.54-13.42 4.38-14.1 12.98-.5 6.49 1.03 19.27 29.26 21.74 27.95 2.44 34.42-9.77 35.44-16.42 1.31-8.53-3.82-14.31-14.88-15.52z"/><path fill="#F0D8B4" d="M215.98 347.13c1.6 4.2-.4 9.03-3.64 10.4-3.24 1.4-6.87-.74-8.73-4.83-2.8-6.14-1-10.69 2.24-12.07 3.24-1.38 7.6-.09 10.13 6.5z"/><path fill="#674430" d="M215.18 345.21c1.62 4.2.3 8.74-2.94 10.12-3.23 1.38-7.16-.9-8.77-5.1-1.62-4.21-.3-8.74 2.94-10.12 3.23-1.39 7.16.9 8.77 5.1z"/><path fill="#361609" d="M215.18 345.21c.3.79.5 1.6.6 2.38-1.62-4.15-5.87-5.7-8.94-4.39-3.07 1.31-3.81 5.02-2.22 9.2-.45-.65-.85-1.38-1.15-2.18-1.62-4.2-.3-8.73 2.93-10.12 3.24-1.38 7.17.9 8.78 5.11z"/><g><path fill="#F0D8B4" d="M230.85 347.56a7.46 7.46 0 002.46 10.95c3.73 1.99 8.64.6 11.74-3.05 4.66-5.5 3.31-10.32-.41-12.3-3.73-2-9.38-1.58-13.79 4.4z"/><path fill="#674430" d="M232.2 345.83c-2.8 3.82-2.07 8.53 1.66 10.52 3.73 2 9.03.51 11.85-3.3 2.81-3.82 2.07-8.53-1.66-10.52-3.73-2-9.03-.51-11.84 3.3z"/><path fill="#361609" d="M232.2 345.83a8.94 8.94 0 00-1.2 2.22c2.82-3.76 8.38-4.45 11.91-2.56 3.54 1.89 3.73 5.67.95 9.47.68-.54 1.31-1.18 1.85-1.91 2.82-3.82 2.08-8.53-1.65-10.52-3.73-2-9.04-.52-11.85 3.3z"/></g></g><g display="block"><path fill="#DBBF97" d="M272.17 295.08c0 16.73 11.27 30.3 24 30.3 12.72 0 24-13.57 24-30.3s-11.28-30.3-24-30.3c-12.73 0-24 13.57-24 30.3z"/><path fill="#111" d="M273.13 290.75c0 16.73 10.31 30.3 23.03 30.3 12.73 0 23.04-13.57 23.04-30.3s-10.31-30.3-23.04-30.3c-12.72 0-23.03 13.57-23.03 30.3z"/><path fill="#F5F5F5" d="M283.5 275.8c0 4.88 5.67.97 12.66.97 7 0 12.66 4.02 12.66-.98 0-3.1-5.67-9.23-12.66-9.23s-12.65 6.12-12.65 9.23z"/><path fill="#484949" d="M279.94 297.4c0 6.07 6.74 17.79 16.22 17.79 9.5 0 16.23-11.72 16.23-17.8 0-9.73-6.74-.55-16.23-.55-9.48 0-16.22-9.62-16.22.56z"/></g><g display="block"><path fill="#DBBF97" d="M197.3 291.96c0 15.76-9.81 28.53-20.88 28.53-11.07 0-20.88-12.77-20.88-28.53 0-15.76 9.8-28.54 20.88-28.54 11.07 0 20.87 12.78 20.87 28.54z"/><path fill="#111" d="M196.46 287.88c0 15.76-8.97 28.53-20.04 28.53-11.07 0-20.05-12.77-20.05-28.53 0-15.76 8.98-28.54 20.05-28.54s20.04 12.78 20.04 28.54z"/><path fill="#F5F5F5" d="M187.43 273.79c0 4.6-4.93.92-11.01.92-6.09 0-11.02 3.79-11.02-.92 0-2.93 4.93-8.7 11.02-8.7 6.08 0 11 5.77 11 8.7z"/><path fill="#484949" d="M190.53 294.14c0 5.72-5.86 16.76-14.11 16.76-8.26 0-14.12-11.04-14.12-16.76 0-9.17 5.86-.52 14.12-.52 8.25 0 14.11-9.07 14.11.52z"/></g></g></svg>
